# xmcd
#
# Track frame offsets:
#	150
#	21221
#	43114
#	58071
#	84036
#	111794
#	127030
#	140237
#	155470
#	171626
#	194950
#
# Disc length: 3008 seconds
#
# Revision: 3
# Processed by: cddbd v1.5.2PL0 Copyright (c) Steve Scherf et al.
# Submitted via: audiograbber 1.83.01
#
DISCID=a50bbe0b
DTITLE=Till Brönner and Dieter Ilg - Nightfall
DYEAR=2018
DGENRE=Jazz
TTITLE0=A Thousend Kisses Deep
TTITLE1=The Fifth Of Beethoven
TTITLE2=Nightfall
TTITLE3=Nobody Else But Me
TTITLE4=Air
TTITLE5=Scream and Shout
TTITLE6=Wetterstein
TTITLE7=Eleanor Rigby
TTITLE8=Peng! Peng!
TTITLE9=Body And Soul
TTITLE10=Ach bleib mit deiner Gnade
EXTD=
EXTT0=
EXTT1=
EXTT2=
EXTT3=
EXTT4=
EXTT5=
EXTT6=
EXTT7=
EXTT8=
EXTT9=
EXTT10=
PLAYORDER=
